<?xml version="1.0" encoding="UTF-8" standalone="no"?>
<!DOCTYPE svg PUBLIC "-//W3C//DTD SVG 1.1//EN" "http://www.w3.org/Graphics/SVG/1.1/DTD/svg11.dtd">
<svg version="1.1" xmlns="http://www.w3.org/2000/svg" xmlns:xlink="http://www.w3.org/1999/xlink" preserveAspectRatio="xMidYMid meet" viewBox="0 0 850 600" width="850" height="600"><defs><path d="M379.67 572.36L754.79 361.85L423.02 164L74.2 331.78L379.67 572.36Z" id="b2mzEKTmVJ"></path><path d="M393.45 544.91L384.1 544.75L385.52 462L394.87 462.16L393.45 544.91ZM411.29 534.6L401.93 534.44L403.35 451.7L412.7 451.86L411.29 534.6ZM378.61 534.04L369.25 533.88L370.67 451.14L380.02 451.3L378.61 534.04ZM427.49 524.27L418.14 524.11L419.56 441.36L428.91 441.52L427.49 524.27ZM363.76 523.18L354.41 523.02L355.82 440.27L365.18 440.43L363.76 523.18ZM445.72 513.97L436.37 513.81L437.79 431.06L447.14 431.22L445.72 513.97ZM348.91 512.31L339.56 512.15L340.98 429.41L350.33 429.57L348.91 512.31ZM463.25 508.38L453.9 508.22L455.32 425.48L464.67 425.64L463.25 508.38ZM334.07 501.45L324.72 501.29L326.13 418.54L335.48 418.7L334.07 501.45ZM481 498.62L471.65 498.46L473.07 415.71L482.42 415.87L481 498.62ZM319.22 490.58L309.87 490.42L311.29 407.68L320.64 407.84L319.22 490.58ZM497.48 490.3L488.12 490.14L489.54 407.39L498.89 407.55L497.48 490.3ZM513.74 480.83L504.39 480.67L505.8 397.93L515.15 398.09L513.74 480.83ZM304.37 479.72L295.02 479.56L296.44 396.81L305.79 396.97L304.37 479.72ZM529.99 472.06L520.64 471.9L522.05 389.15L531.4 389.31L529.99 472.06ZM289.53 468.85L280.18 468.69L281.59 385.95L290.94 386.11L289.53 468.85ZM546.23 463.66L536.88 463.5L538.3 380.75L547.65 380.91L546.23 463.66ZM274.68 457.99L265.33 457.83L266.75 375.08L276.1 375.24L274.68 457.99ZM564.16 454.05L554.81 453.89L556.22 371.14L565.57 371.3L564.16 454.05ZM259.84 447.12L250.48 446.96L251.9 364.22L261.25 364.38L259.84 447.12ZM580.42 444.58L571.07 444.42L572.49 361.68L581.84 361.84L580.42 444.58ZM244.99 436.26L235.64 436.1L237.06 353.35L246.41 353.51L244.99 436.26ZM596.67 435.81L587.32 435.65L588.74 352.9L598.09 353.06L596.67 435.81ZM612.91 427.41L603.56 427.25L604.98 344.5L614.33 344.66L612.91 427.41ZM230.14 425.39L220.79 425.23L222.21 342.49L231.56 342.65L230.14 425.39ZM629.88 417.26L620.53 417.1L621.94 334.36L631.29 334.52L629.88 417.26ZM215.3 414.53L205.95 414.37L207.36 331.62L216.71 331.78L215.3 414.53ZM646.14 407.8L636.79 407.64L638.2 324.89L647.56 325.05L646.14 407.8ZM200.45 403.66L191.1 403.5L192.52 320.76L201.87 320.92L200.45 403.66ZM662.39 399.02L653.04 398.86L654.45 316.12L663.81 316.28L662.39 399.02ZM185.54 396.42L176.19 396.26L177.61 313.51L186.96 313.67L185.54 396.42ZM678.63 390.62L669.28 390.46L670.7 307.72L680.05 307.88L678.63 390.62ZM170.76 381.93L161.41 381.77L162.82 299.03L172.18 299.19L170.76 381.93ZM695.75 379.71L686.4 379.55L686.97 346.52L696.32 346.68L695.75 379.71ZM711.99 371.32L702.64 371.16L702.88 357.31L712.23 357.47L711.99 371.32ZM155.68 369.99L146.33 369.83L147.33 311.39L156.68 311.55L155.68 369.99ZM138.92 360.12L129.56 359.96L130.28 318.29L139.63 318.45L138.92 360.12ZM122.22 352.65L112.87 352.49L113.33 325.06L122.69 325.22L122.22 352.65ZM106.45 339.92L97.09 339.76L97.19 334.13L106.54 334.29L106.45 339.92Z" id="ajD0tscmg"></path><path d="M125.97 282.26C133.66 280.2 138.79 280.2 141.35 282.26C143.92 284.33 143.92 288.45 141.35 294.65L383.8 489.92L783.16 276.81L489.07 102.53C484.1 103.69 480.65 103.69 478.71 102.53C476.77 101.37 475.65 98.88 475.35 95.06L433.89 68.21L66.84 234.64L125.97 282.26Z" id="aJaDEHYTc"></path><path d="M533.02 143.76L541.32 140.18L592.26 167.79L584.14 175.17L738.7 270.55L633.13 323.32L608.42 315.45L509.39 364.37L516.79 388.1L392.26 454.07L275.48 368.38L257.17 373.31L199.29 326.54L214.54 320.13L103.55 232.34L432.13 81.57L533.02 143.76Z" id="b9OzGuQMY5"></path><path d="M394.15 391.93C397.32 394.2 401.48 394.57 405 392.9C546.61 325.64 643.29 279.84 695.03 255.48C697.28 254.42 607 198.48 424.21 87.66L701.39 253.39L701.39 270.87C545.2 349.26 447.59 398.25 408.54 417.84C402.87 420.69 396.08 420.1 390.99 416.31C359.74 393.08 281.6 335 156.59 242.08C156.18 235.06 155.92 230.67 155.82 228.92C155.54 224.13 158.21 219.65 162.56 217.63C197.71 201.26 285.59 160.34 426.19 94.88C286.67 160.71 199.47 201.86 164.59 218.32C161 220.01 160.56 224.94 163.79 227.24C210.89 260.91 346.64 357.97 394.15 391.93Z" id="b3ZLx7tnKH"></path><linearGradient id="gradienta4GXrPWbav" gradientUnits="userSpaceOnUse" x1="833.26" y1="430.5" x2="196.95" y2="437.42"><stop style="stop-color: #c9c2d2;stop-opacity: 1" offset="0%"></stop><stop style="stop-color: #6d5887;stop-opacity: 1" offset="100%"></stop></linearGradient></defs><g><g><g><use xlink:href="#b2mzEKTmVJ" opacity="1" fill="#ffc300" fill-opacity="1"></use></g><g><use xlink:href="#ajD0tscmg" opacity="1" fill="#d6a4a6" fill-opacity="1"></use></g><g><use xlink:href="#aJaDEHYTc" opacity="1" fill="#2bbbad" fill-opacity="1"></use></g><g><g><filter id="shadow195080" x="92.55" y="70.57" width="660.15" height="397.5" filterUnits="userSpaceOnUse" primitiveUnits="userSpaceOnUse"><feFlood></feFlood><feComposite in2="SourceAlpha" operator="in"></feComposite><feGaussianBlur stdDeviation="1"></feGaussianBlur><feOffset dx="-3" dy="3" result="afterOffset"></feOffset><feFlood flood-color="#6d5887" flood-opacity="1"></feFlood><feComposite in2="afterOffset" operator="in"></feComposite><feMorphology operator="dilate" radius="1"></feMorphology><feComposite in2="SourceAlpha" operator="out"></feComposite></filter><path d="M533.02 143.76L541.32 140.18L592.26 167.79L584.14 175.17L738.7 270.55L633.13 323.32L608.42 315.45L509.39 364.37L516.79 388.1L392.26 454.07L275.48 368.38L257.17 373.31L199.29 326.54L214.54 320.13L103.55 232.34L432.13 81.57L533.02 143.76Z" id="dnN9SJmDZ" fill="white" fill-opacity="1" filter="url(#shadow195080)"></path></g><use xlink:href="#b9OzGuQMY5" opacity="1" fill="#c9c2d2" fill-opacity="1"></use></g><g><use xlink:href="#b3ZLx7tnKH" opacity="1" fill="url(#gradienta4GXrPWbav)"></use></g><g><g><filter id="shadow14074416" x="252.17" y="132.38" width="227.2" height="138.67" filterUnits="userSpaceOnUse" primitiveUnits="userSpaceOnUse"><feFlood></feFlood><feComposite in2="SourceAlpha" operator="in"></feComposite><feGaussianBlur stdDeviation="1.41"></feGaussianBlur><feOffset dx="-1" dy="1.5" result="afterOffset"></feOffset><feFlood flood-color="#ffc300" flood-opacity="0.5"></feFlood><feComposite in2="afterOffset" operator="in"></feComposite><feMorphology operator="dilate" radius="1"></feMorphology><feComposite in2="SourceAlpha" operator="out"></feComposite></filter></g><use xlink:href="#cGLVKZ7T" opacity="1" fill="#f8f792" fill-opacity="1"></use></g></g></g></svg>
