<?xml version="1.0" encoding="UTF-8" standalone="no"?>
<!DOCTYPE svg PUBLIC "-//W3C//DTD SVG 1.1//EN" "http://www.w3.org/Graphics/SVG/1.1/DTD/svg11.dtd">
<svg version="1.1" xmlns="http://www.w3.org/2000/svg" xmlns:xlink="http://www.w3.org/1999/xlink" preserveAspectRatio="xMidYMid meet" viewBox="0 0 850 600" width="850" height="600"><defs><path d="M372.32 566.48L747.43 355.97L415.67 158.12L66.84 325.9L372.32 566.48Z" id="b1cVCvS5ya"></path><path d="M386.1 539.02L376.75 538.86L378.16 456.12L387.51 456.28L386.1 539.02ZM403.93 528.72L394.58 528.56L396 445.81L405.35 445.97L403.93 528.72ZM371.25 528.16L361.9 528L363.32 445.25L372.67 445.41L371.25 528.16ZM420.14 518.39L410.79 518.23L412.2 435.48L421.55 435.64L420.14 518.39ZM356.41 517.29L347.06 517.13L348.47 434.39L357.82 434.55L356.41 517.29ZM438.37 508.09L429.02 507.93L430.44 425.18L439.79 425.34L438.37 508.09ZM341.56 506.43L332.21 506.27L333.63 423.52L342.98 423.68L341.56 506.43ZM455.9 502.5L446.55 502.34L447.97 419.6L457.32 419.76L455.9 502.5ZM326.71 495.56L317.36 495.4L318.78 412.66L328.13 412.82L326.71 495.56ZM473.65 492.74L464.3 492.58L465.71 409.83L475.06 409.99L473.65 492.74ZM311.87 484.7L302.52 484.54L303.93 401.79L313.28 401.95L311.87 484.7ZM490.12 484.41L480.77 484.25L482.19 401.51L491.54 401.67L490.12 484.41ZM506.38 474.95L497.03 474.79L498.45 392.04L507.8 392.2L506.38 474.95ZM297.02 473.83L287.67 473.67L289.09 390.93L298.44 391.09L297.02 473.83ZM522.63 466.17L513.28 466.01L514.7 383.27L524.05 383.43L522.63 466.17ZM282.18 462.97L272.82 462.81L274.24 380.06L283.59 380.22L282.18 462.97ZM538.88 457.78L529.53 457.62L530.94 374.87L540.29 375.03L538.88 457.78ZM267.33 452.1L257.98 451.94L259.39 369.2L268.75 369.36L267.33 452.1ZM556.81 448.16L547.45 448L548.87 365.26L558.22 365.42L556.81 448.16ZM252.48 441.24L243.13 441.08L244.55 358.33L253.9 358.49L252.48 441.24ZM573.07 438.7L563.72 438.54L565.13 355.79L574.48 355.95L573.07 438.7ZM237.64 430.37L228.29 430.21L229.7 347.47L239.05 347.63L237.64 430.37ZM589.32 429.92L579.97 429.76L581.38 347.02L590.73 347.18L589.32 429.92ZM605.56 421.53L596.21 421.37L597.63 338.62L606.98 338.78L605.56 421.53ZM222.79 419.51L213.44 419.35L214.86 336.6L224.21 336.76L222.79 419.51ZM622.52 411.38L613.17 411.22L614.59 328.48L623.94 328.64L622.52 411.38ZM207.94 408.64L198.59 408.48L200.01 325.74L209.36 325.9L207.94 408.64ZM638.79 401.92L629.43 401.76L630.85 319.01L640.2 319.17L638.79 401.92ZM193.1 397.78L183.75 397.62L185.16 314.87L194.51 315.03L193.1 397.78ZM655.04 393.14L645.68 392.98L647.1 310.23L656.45 310.39L655.04 393.14ZM178.19 390.54L168.84 390.38L170.26 307.63L179.61 307.79L178.19 390.54ZM671.28 384.74L661.93 384.58L663.34 301.84L672.7 302L671.28 384.74ZM163.41 376.05L154.06 375.89L155.47 293.14L164.82 293.3L163.41 376.05ZM688.4 373.83L679.05 373.67L679.61 340.63L688.96 340.79L688.4 373.83ZM704.64 365.44L695.29 365.28L695.53 351.43L704.88 351.59L704.64 365.44ZM148.33 364.11L138.98 363.95L139.98 305.51L149.33 305.67L148.33 364.11ZM131.56 354.24L122.21 354.08L122.92 312.4L132.28 312.56L131.56 354.24ZM114.86 346.77L105.51 346.61L105.98 319.18L115.33 319.34L114.86 346.77ZM99.09 334.04L89.74 333.88L89.84 328.24L99.19 328.4L99.09 334.04Z" id="aMrBjpa6e"></path><path d="M125.97 282.26C133.66 280.2 138.79 280.2 141.35 282.26C143.92 284.33 143.92 288.45 141.35 294.65L383.8 489.92L783.16 276.81L489.07 102.53C484.1 103.69 480.65 103.69 478.71 102.53C476.77 101.37 475.65 98.88 475.35 95.06L433.89 68.21L66.84 234.64L125.97 282.26Z" id="bxIVWQXxh"></path><path d="M519.04 146.88L527.34 143.29L578.28 170.9L570.16 178.28L724.71 273.66L619.14 326.43L594.43 318.56L495.4 367.49L502.81 391.21L378.27 457.18L261.49 371.49L243.19 376.42L185.31 329.65L200.55 323.25L89.56 235.45L418.14 84.68L519.04 146.88Z" id="e5zcWf5be6"></path><path d="M392.96 388.36C396.14 390.63 400.29 391.01 403.82 389.34C443.34 370.74 542.13 324.23 700.2 249.82C700.2 256.17 700.2 260.13 700.2 261.72C700.2 265.14 698.27 268.27 695.21 269.8C635.79 299.62 465.92 384.88 407.35 414.27C401.67 417.12 394.87 416.58 389.72 412.85C356.69 388.98 274.14 329.3 142.05 233.82C142.05 230.98 142.05 229.2 142.05 228.49C142.05 223.64 144.88 219.24 149.28 217.23C186.05 200.44 277.95 158.47 425 91.31C285.48 157.14 198.28 198.29 163.4 214.75C159.81 216.44 159.37 221.36 162.6 223.67C209.7 257.34 345.45 354.39 392.96 388.36Z" id="b1H2EkssF"></path><linearGradient id="gradientaia4MKzIa" gradientUnits="userSpaceOnUse" x1="835.1" y1="426.72" x2="184.15" y2="433.49"><stop style="stop-color: #c9c2d2;stop-opacity: 1" offset="0%"></stop><stop style="stop-color: #6d5887;stop-opacity: 1" offset="100%"></stop></linearGradient><path d="M275.19 219.34L315.78 251.62L340.84 236.46L345.9 239.7L315.78 257.61L263.67 219.34L296.24 205.5L300.07 207.51L275.19 219.34ZM366.09 195.12L387.84 212.54L383.69 214.44L383.61 214.48L383.52 214.51L383.43 214.55L383.34 214.58L383.25 214.6L383.16 214.63L383.07 214.65L382.98 214.67L382.89 214.68L382.8 214.69L382.71 214.7L382.62 214.71L382.53 214.71L382.44 214.72L382.34 214.71L382.25 214.71L382.16 214.7L382.07 214.69L381.98 214.68L381.89 214.66L381.8 214.65L381.71 214.63L381.62 214.6L381.53 214.58L381.45 214.55L381.36 214.52L381.27 214.48L381.19 214.45L381.11 214.41L381.02 214.36L380.94 214.32L380.86 214.27L380.78 214.22L380.7 214.17L380.63 214.11L338.6 182.57L371.49 167.31L392.3 182.57L366.09 195.12ZM362.5 192.42L385.86 182.23L371.2 171.78L347.58 182.23L362.5 192.42ZM440.3 186.77L400.03 156.66L406.23 153.5L441.89 181.56L461.82 169.82L438.7 140.09L441.89 137.91L466.88 172.21L440.3 186.77Z" id="bwVEcmhHw"></path></defs><g><g><g><use xlink:href="#b1cVCvS5ya" opacity="1" fill="#ffc300" fill-opacity="1"></use></g><g><use xlink:href="#aMrBjpa6e" opacity="1" fill="#d6a4a6" fill-opacity="1"></use></g><g><use xlink:href="#bxIVWQXxh" opacity="1" fill="#2bbbad" fill-opacity="1"></use></g><g><g><filter id="shadow4405096" x="78.56" y="73.68" width="660.15" height="397.5" filterUnits="userSpaceOnUse" primitiveUnits="userSpaceOnUse"><feFlood></feFlood><feComposite in2="SourceAlpha" operator="in"></feComposite><feGaussianBlur stdDeviation="1"></feGaussianBlur><feOffset dx="-3" dy="3" result="afterOffset"></feOffset><feFlood flood-color="#6d5887" flood-opacity="1"></feFlood><feComposite in2="afterOffset" operator="in"></feComposite><feMorphology operator="dilate" radius="1"></feMorphology><feComposite in2="SourceAlpha" operator="out"></feComposite></filter><path d="M519.04 146.88L527.34 143.29L578.28 170.9L570.16 178.28L724.71 273.66L619.14 326.43L594.43 318.56L495.4 367.49L502.81 391.21L378.27 457.18L261.49 371.49L243.19 376.42L185.31 329.65L200.55 323.25L89.56 235.45L418.14 84.68L519.04 146.88Z" id="a2l0okR0x8" fill="white" fill-opacity="1" filter="url(#shadow4405096)"></path></g><use xlink:href="#e5zcWf5be6" opacity="1" fill="#c9c2d2" fill-opacity="1"></use></g><g><use xlink:href="#b1H2EkssF" opacity="1" fill="url(#gradientaia4MKzIa)"></use></g><g><g><filter id="shadow12741144" x="252.17" y="126.41" width="227.2" height="144.2" filterUnits="userSpaceOnUse" primitiveUnits="userSpaceOnUse"><feFlood></feFlood><feComposite in2="SourceAlpha" operator="in"></feComposite><feGaussianBlur stdDeviation="1.41"></feGaussianBlur><feOffset dx="-1" dy="1.5" result="afterOffset"></feOffset><feFlood flood-color="#ffc300" flood-opacity="0.5"></feFlood><feComposite in2="afterOffset" operator="in"></feComposite><feMorphology operator="dilate" radius="1"></feMorphology><feComposite in2="SourceAlpha" operator="out"></feComposite></filter><path d="M275.19 219.34L315.78 251.62L340.84 236.46L345.9 239.7L315.78 257.61L263.67 219.34L296.24 205.5L300.07 207.51L275.19 219.34ZM366.09 195.12L387.84 212.54L383.69 214.44L383.61 214.48L383.52 214.51L383.43 214.55L383.34 214.58L383.25 214.6L383.16 214.63L383.07 214.65L382.98 214.67L382.89 214.68L382.8 214.69L382.71 214.7L382.62 214.71L382.53 214.71L382.44 214.72L382.34 214.71L382.25 214.71L382.16 214.7L382.07 214.69L381.98 214.68L381.89 214.66L381.8 214.65L381.71 214.63L381.62 214.6L381.53 214.58L381.45 214.55L381.36 214.52L381.27 214.48L381.19 214.45L381.11 214.41L381.02 214.36L380.94 214.32L380.86 214.27L380.78 214.22L380.7 214.17L380.63 214.11L338.6 182.57L371.49 167.31L392.3 182.57L366.09 195.12ZM362.5 192.42L385.86 182.23L371.2 171.78L347.58 182.23L362.5 192.42ZM440.3 186.77L400.03 156.66L406.23 153.5L441.89 181.56L461.82 169.82L438.7 140.09L441.89 137.91L466.88 172.21L440.3 186.77Z" id="a1hGSp2ssb" fill="white" fill-opacity="1" filter="url(#shadow12741144)"></path></g><use xlink:href="#bwVEcmhHw" opacity="1" fill="#f8f792" fill-opacity="1"></use></g></g></g></svg>