<?xml version="1.0" encoding="UTF-8" standalone="no"?>
<!DOCTYPE svg PUBLIC "-//W3C//DTD SVG 1.1//EN" "http://www.w3.org/Graphics/SVG/1.1/DTD/svg11.dtd">
<svg version="1.1" xmlns="http://www.w3.org/2000/svg" xmlns:xlink="http://www.w3.org/1999/xlink" preserveAspectRatio="xMidYMid meet" viewBox="0 0 640 250" width="640" height="250"><defs><path d="M215.29 76.34L424.71 76.34L424.71 195.26L215.29 195.26L215.29 76.34Z" id="f6nn6fjBDs"></path><path d="M73.75 219.35L566.25 219.35L566.25 250L73.75 250L73.75 219.35Z" id="gSLDNfaOq"></path><path d="M422.18 78.24L422.18 193.34L217.19 78.24L422.18 78.24Z" id="a4zs9zHZ6u"></path><path d="M304.46 195.26L335.54 195.26L335.54 219.35L304.46 219.35L304.46 195.26Z" id="b4FC9QzqxZ"></path><path d="M261.67 216.41L378.33 216.41L378.33 219.35L261.67 219.35L261.67 216.41Z" id="a31tTKEAMv"></path><path d="M124.47 219.35L119.42 205.71L107.8 203.87L102.75 195.14L113.87 186.42L110.33 167.58L137.6 219.35L124.47 219.35ZM108.81 200.43L118.41 202.03L114.37 190.09L106.29 196.06L108.81 200.43Z" id="b2wrRlZ3DE"></path><path d="M160.33 167.58L151.74 219.35L137.6 219.35L110.33 167.58L160.33 167.58Z" id="aGJWofXa"></path><path d="M111 167.58L94.98 160.11L85.05 141.21L89.59 117.38L129.81 87.3L183.56 98.15L148.65 59.48L111 76.34L89.59 57.81L89.59 31.57L129.81 15.64L103.3 29.55L94.98 42.01L101.26 59.48L119.51 65.61L139.5 47.47L164.77 62.83L191.3 83.32L194.62 107.59L147.56 107.59L120.18 123.01C120.51 129.69 122.09 135.02 124.91 139C129.14 144.97 133.41 140.14 140.97 144.66C146.02 147.68 150.76 151.83 155.18 157.11L161 167.58L111 167.58Z" id="c1GTIJ5Xoi"></path><linearGradient id="gradientb2y2aoRXgX" gradientUnits="userSpaceOnUse" x1="135.33" y1="167.58" x2="130.38" y2="15.64"><stop style="stop-color: #ffffff;stop-opacity: 1" offset="0%"></stop><stop style="stop-color: #2bbbad;stop-opacity: 1" offset="100%"></stop></linearGradient><path d="M503.71 87.16L541.75 147.76L500.63 213.34L528.04 213.34L528.04 219.35L473.22 219.35L473.22 213.34L497.02 213.34L533.82 154.47L528.04 147.76L533.82 143.29L502.8 93.37L494.14 125.69L461.53 95.29L493.08 82.93L503.71 87.16Z" id="d9OUmQkJ6"></path><path d="M494.18 125.94L486.35 165.64C478.7 171.86 465.89 166.23 447.92 148.77C429.94 131.3 423.52 117.93 428.65 108.63L461.53 95.2L494.18 125.94Z" id="b18JzXlbxA"></path><radialGradient id="gradientj29U3VxD1o" gradientUnits="userSpaceOnUse" cx="476.8" cy="111.41" dx="447.19" dy="148.22" r="47.24"><stop style="stop-color: #ffffff;stop-opacity: 1" offset="0%"></stop><stop style="stop-color: #2bbbad;stop-opacity: 1" offset="100%"></stop></radialGradient><path d="M499.04 107.2L480 88.05" id="bjF54CAFk"></path></defs><g><g><g><use xlink:href="#f6nn6fjBDs" opacity="1" fill="#bdeae6" fill-opacity="0.69"></use><g><use xlink:href="#f6nn6fjBDs" opacity="1" fill-opacity="0" stroke="#838383" stroke-width="3" stroke-opacity="1"></use></g></g><g><use xlink:href="#gSLDNfaOq" opacity="1" fill="#d4c3d5" fill-opacity="0.93"></use></g><g><use xlink:href="#a4zs9zHZ6u" opacity="1" fill="#ffffff" fill-opacity="0.7"></use></g><g><use xlink:href="#b4FC9QzqxZ" opacity="1" fill="#838383" fill-opacity="1"></use></g><g><use xlink:href="#a31tTKEAMv" opacity="1" fill="#838383" fill-opacity="1"></use></g><g><use xlink:href="#b2wrRlZ3DE" opacity="1" fill="#ae5157" fill-opacity="1"></use></g><g><use xlink:href="#aGJWofXa" opacity="1" fill="#d5a4a7" fill-opacity="1"></use></g><g><use xlink:href="#c1GTIJ5Xoi" opacity="0.57" fill="url(#gradientb2y2aoRXgX)"></use></g><g><use xlink:href="#d9OUmQkJ6" opacity="1" fill="#f8f698" fill-opacity="1"></use></g><g><use xlink:href="#b18JzXlbxA" opacity="0.63" fill="url(#gradientj29U3VxD1o)"></use></g><g><g><use xlink:href="#bjF54CAFk" opacity="1" fill-opacity="0" stroke="#2bbbad" stroke-width="1" stroke-opacity="1"></use></g></g></g></g></svg>