<?xml version="1.0" encoding="UTF-8" standalone="no"?>
<!DOCTYPE svg PUBLIC "-//W3C//DTD SVG 1.1//EN" "http://www.w3.org/Graphics/SVG/1.1/DTD/svg11.dtd">
<svg version="1.1" xmlns="http://www.w3.org/2000/svg" xmlns:xlink="http://www.w3.org/1999/xlink" preserveAspectRatio="xMidYMid meet" viewBox="0 0 850 600" width="850" height="600"><defs><path d="M536.75 446.95L784.69 251.99L329.76 147.55L63.48 316.34L536.75 446.95Z" id="eRBGEN6lZ"></path><path d="M88.84 329.16L148.01 286.36L174.22 275.95L226.63 229.68L250.3 234.31L290.87 204.24L329.76 196.14L329.76 147.55L63.48 315.28L88.84 329.16Z" id="a1FnVXGf49"></path><path d="M784.69 255.25L763.58 270.9L701.13 270.9L645.72 250.44L612.3 229.98L519.95 232.38L507.64 221.55L465.42 201.09L452.23 207.11L420.56 210.42L365.15 184.24L329.76 195.07L329.76 151.75L784.69 255.25Z" id="cmJ1zSpI"></path><path d="M537.04 464.06L33.54 320.21L326.79 138.49L816.46 244.49L537.04 464.06ZM534.28 437.56L772.2 255.85L329.55 157.42L77.8 312.63L534.28 437.56Z" id="g1aS5GD3p0"></path><path d="M536.75 464.06L536.75 532.38L33.54 381.4L33.54 320.19L536.75 464.06Z" id="dkrhYwsET"></path><path d="M816.46 244.69L816.46 297.25L536.75 532.38L536.75 464.06L816.46 244.69Z" id="a2OfPiIpAn"></path><path d="M604.35 278.24L641.42 248.96L647.73 250.31L633.76 273.73L647.73 297.25L608.23 317.22L604.35 278.24Z" id="c1dACb0DMX"></path><path d="M670.04 119.7L651.28 108.63L607.93 254.9L630.43 265.5L607.93 320.19L586.76 300.53L569.56 300.53L573.53 254.9L601 252.99L644.77 105.5L628.53 98.02L639.82 67.62L683.61 91.59L670.04 119.7ZM667 113.11L675.63 92.37L644.44 74.02L635.81 94.76L667 113.11Z" id="b5fUHDfAn"></path><path d="M338.62 315.18L413.73 304.55L413.73 348.85L375.53 362.14L326.19 334.92L338.62 315.18Z" id="j8L3e0qIw"></path><path d="M325.26 335.07L352.25 340.61L377.65 335.07L390.82 238.36L369.3 227.73L342.54 226.97C331.29 228.63 322.13 231.74 315.06 236.29C307.98 240.85 303 245.75 300.11 250.98L325.26 335.07Z" id="a3uCakDKJg"></path><path d="M337.54 285.13L369.96 291.67L382.31 272.44L387.02 251.98L382.31 270.9L368.8 286.86L342.31 282.12L309.4 255.21L337.54 285.13Z" id="b2EDZZXs6l"></path><path d="M324.21 235.57L354.94 230.61L386.64 239.93L364.78 248.62L309.4 248.62L324.21 235.57Z" id="a38cWaVq9o"></path></defs><g><g><g><use xlink:href="#eRBGEN6lZ" opacity="1" fill="#f8f792" fill-opacity="1"></use></g><g><use xlink:href="#a1FnVXGf49" opacity="1" fill="#8a2525" fill-opacity="1"></use></g><g><use xlink:href="#cmJ1zSpI" opacity="1" fill="#ea7171" fill-opacity="1"></use></g><g><use xlink:href="#g1aS5GD3p0" opacity="1" fill="#d6a4a6" fill-opacity="1"></use></g><g><use xlink:href="#dkrhYwsET" opacity="1" fill="#ea7171" fill-opacity="1"></use></g><g><use xlink:href="#a2OfPiIpAn" opacity="1" fill="#8a2525" fill-opacity="1"></use></g><g><use xlink:href="#c1dACb0DMX" opacity="1" fill="#ffc300" fill-opacity="1"></use></g><g><use xlink:href="#b5fUHDfAn" opacity="1" fill="#2bbbad" fill-opacity="1"></use></g><g><use xlink:href="#j8L3e0qIw" opacity="1" fill="#ffc300" fill-opacity="1"></use></g><g><use xlink:href="#a3uCakDKJg" opacity="1" fill="#c9c2d2" fill-opacity="1"></use></g><g><use xlink:href="#b2EDZZXs6l" opacity="1" fill="#2bbbad" fill-opacity="1"></use><g><use xlink:href="#b2EDZZXs6l" opacity="1" fill-opacity="0" stroke="#2bbbad" stroke-width="1" stroke-opacity="1"></use></g></g><g><use xlink:href="#a38cWaVq9o" opacity="1" fill="#ffc300" fill-opacity="1"></use></g></g></g></svg>